<?xml version="1.0" encoding="UTF-8"?>
<svg version="1.1" viewBox="0 0 2000 2000" width="1280" height="1280" xmlns="http://www.w3.org/2000/svg">
<path transform="translate(0)" d="m0 0h2e3v2e3h-2e3z" fill="#FCFCFC"/>
<path transform="translate(723,530)" d="m0 0h45l14 3 10 4 8 7 4 8-2 12-5 11-7 12-12 17-9 12-14 19-10 13-9 12-13 17-12 16-28 38-9 12-10 14-13 18-8 11-20 28-16 23-24 34-10 14-14 20-12 17-13 18-13 19-14 19-2 5 5 5 6 14 1 3 6-2 23-11 29-12 30-10 24-5 21-3 21-63 11-32 12-31 11-21 6-7 6-3h6l5 4 3 9v46l-2 5h2l2-5 8-9 12-9 13-6 5-1h13l10 3 7 2 4-5 3-2h9l5 5-1 17-2 15v12l3 10 4 5 6 2 9-1 9-6 8-7 7-8 2-3 3-18 5-8 5-3 4-1h12l3 2-1 15-1 11v9l3 16 3 5 1 1h9l8-6 7-9 5-12 6-34 4-5 5-2 8 1 4 4 1 4v68l11-9 15-13 16-13 5-4 1-10 1-60 2-46 4-54 5-42 5-29 6-18 7-11 9-5 8-1 8 4 6 10 3 9 1 7v13l-2 22-7 41-9 41-19 77-7 25 10-13 8-9 10-6 7-2h14l8 3 5 6 1 7-4 10-7 9-4 5-11 8-15 8h-2l3 5 11 12 10 8 6 3h14l12-4 12-7 12-9 3-5 6-12 8-10 8-7 14-8 11-3h11l11 3 7 2 2-4 6-3h8l4 3v18l-2 14v15l3 9 4 5 6 2 9-1 11-7 7-7 9-11 8-8h3l-3 10-10 16-9 10-9 7-13 5h-19l-9-3-7-8-4-13v-4h-2l-2 6-7 11-11 12-10 6-12 2-15-2-6-4-7-8-2-6-1-9-11 10-10 7-12 6-8 2h-9l-14-3-9-6-8-7-11-14-4-7-2-1v18l-2 26-2 7-4 2h-8l-5-3-1-3-1-40-11 9-15 13-10 10-8 13-3 7-3 20v12l4-16 5-10 8-9 4-2h9l7 5 6 12 3 19v16l-3 41-5 43-7 50-12 74-3 23-2 30 3-3 7-14 9-13 9-9 7-4 9-2h8l9 3 4 5 3 8 1 9 1 23 3 10 5 3h8l10-5 11-10 13-17 10-9 14-8 10-3h13l10 3 7 3 2-5 5-3h9l4 3 1 3-1 16-2 14v14l4 11 5 4 9 1 8-3 10-8 10-11 7-8-1-25-1-20v-86l2-37 4-34 5-27 6-21 5-11 6-11 6-5 4-2h11l8 5 6 7 4 8 3 11 2 20v15l-2 28-5 35-6 31-7 28-5 16-7 20-8 21-6 15-2 11 1 14 5 22 5 12 6 9 5 3h8l10-5 11-11 10-14 11-20 5-2-1 8-7 18-8 15-11 13-11 7-9 3h-12l-9-2-11-8-7-10-5-11-4-14-1-9h-2l-2 5-9 12-8 8-10 6-10 3h-18l-9-3-7-8-3-9-1-8-2 1-6 12-9 11-9 8-9 4-11 1-13-2-6-4-7-8-2-7v-12l-14 9-10 4-15 1-8-5-5-7-4-15-4-24-3-10-4 1-7 9-10 19-6 15-10 29-5 12-3 3-8 1-8-3-2-4v-35l-1-3-8 11-10 9-12 6-5 1h-18l-9-3-7-8-3-7v-10l-4 4-7 12-9 11-9 6-8 3-4 1h-8l-13-3-8-6-5-10-3 3-11 20-13 28-14 32-17 41-15 35-11 26-12 27-13 28-10 18-5 6-7 4-4 1h-7l-8-4-4-9-2-12v-53l5-67 7-84 9-93 11-100 13-117 4-37-33 1-11 33-26 88-11 37-14 47-8 26-11 31-13 30-7 12-5 4-7 2h-9l-8-5-4-11-3-25-9-91-6-50-8-52-2-10v-6l-7 3-18 11-3 10-9 41-13 68-14 80-17 98-5 20-5 12-4 5-2 1h-9l-6-3-4-5-1-4-1-16-1-32v-198l5-183 1-46 1-20 5-5 5-1 6 3 3 5 2 11v47l-2 53-2 66-2 103-1 56v90l2 14h2l6-38 19-114 8-42 14-63-6 4-7 2h-13l-6-3-1-1 1-8 12-19 14-19 13-19 9-12 12-17 14-19 13-19 9-12 11-16 36-51 13-18 24-34 13-18 13-19 9-12 12-17 13-18 14-19 16-21 27-36 14-18 16-21 16-23 8-13 3-8v-8l-3-4-12-3h-43l-89 7-17 1h-14l-8-2-2-6 1-2 11-2 101-9z" fill="#4C250C"/>
<path transform="translate(1360,243)" d="m0 0h58l30 4 29 7 26 9 18 8 25 13 24 16 16 12 13 12 8 7 9 9 7 8 13 16 11 16 12 20 11 21 8 20 8 24 6 25 3 19 1 10 1 22v21l-2 30-5 28-7 25-8 22-5 11-8 17-8 14-12 18-12 16-12 14-14 15-10 9-11 9-13 10-15 10-17 10-30 15h-4l-1-8-4-85 1-13 4-13 6-8 7-7 15-8 12-6 10-9 6-9 5-12 4-17 1-11v-25l-3-23-6-25-7-20-11-23-9-13-9-10-9-8-14-7-6-2h-20l-14 5-11 8-12 12-7 10-10 18-7 17-6 18-6 30-1 10v33l4 21 7 16 6 8 9 8 10 6 17 8 10 10 5 11 2 8v28l-4 88-4 3-18 4-21 3-21 1h-27l-23-1-31-5-13-4-1-2-4-88v-19l4-15 6-9 10-9 19-9 10-7 6-5 7-12 5-14 2-9 1-9v-34l-8-95-3-26-1-2h-9l-1 83-1 53-1 1-7 1h-12l-10-136-2-16-1-1h-10l-3 155-1 1h-21l-1-1-3-129-1-26h-11l-2 21-6 86-3 41-1 6-18-2-1-1-1-81-1-56-10 1-4 31-9 76-2 17v35l4 20 6 14 7 9 9 8 16 8 11 6 9 9 6 12 2 9v23l-3 64-1 11-2 1-22-10-20-11-21-14-12-9-14-12-10-9-14-14-9-11-12-15-10-15-11-19-10-19-10-25-8-26-5-24-3-26v-53l3-26 4-21 8-27 10-25 11-23 16-26 20-26 7-7 7-8 12-12 8-7 12-10 18-13 25-15 29-14 36-12 28-6z" fill="#4C250C"/>
<path transform="translate(720,980)" d="m0 0 18 2 61 12 26 4 23 2 39 1-8 16-7 15-7 21-3 18v19l4 18 7 14 4 5 9 6 10 3h17l10-4 8-6 7-10 7-15 5-20h1v170l-11 14-11 10-7 4-10 1-6-3-4-5-2-5-1-6v-10l3-24v-9l-4-4h-9l-5 4-2 3-9-3-9-2h-12l-12 4-11 6-11 10-7 11-9 16-9 13-13 22-12 23-10 19-21 42-15 33-18 38-24 51-8 15h-3v-40l4-54 6-72 12-122 17-152 10-86z" fill="#FCFCFC"/>
<path transform="translate(645,977)" d="m0 0h2l-3 10-15 52-36 126-11 36-8 24-8 20-6 10-4 2-4-4-4-16-6-46-7-69-6-50-6-38-2-9 9-6 31-15 36-15 19-6 23-5z" fill="#FCFCFC"/>
<path transform="translate(794,889)" d="m0 0h2l4 15 4 6 5 4 6 2h20l11-4 11-8 7-7 5-8 2 1 5 14 10 11 8 4 7 1h12l9-3 8-6 5-5 2 2-1 28-2 5-8 8-7 8-13 16-12 18h-15l-31-3-37-6-75-15-14-3-1-5 3-27 1-15 2-2 5 5 5 3 10 2h9l10-3 9-6 7-7 9-14z" fill="#FCFCFC"/>
<path transform="translate(720,980)" d="m0 0 18 2 61 12 26 4 23 2 39 1-6 12-4-1h-12l-16-1-32-5-48-9-35-7-2-1-8 70-11 98-12 112-11 112-2 30-3 32-3 40-2 17 1 2-9 17h-3v-40l4-54 6-72 12-122 17-152 10-86z" fill="#D9D4CE"/>
<path transform="translate(806,553)" d="m0 0 4 2 4 8v8l-5 12-9 15-20 28-24 32-13 17-4 6h-2l-2 5-8 10-8 11-12 16-10 14-9 12-13 18-11 15-20 28-8 11-16 23-12 17-21 30-8 11-11 16-10 14-11 16-13 19-9 13-9 14-3 3-6-12-2-2 5-3 5-9 4-5 1-2h2l2-4 11-16 11-15 11-16 13-18 24-34 11-16 10-14 13-19 14-19 20-28 13-18 9-12 8-11 14-19 16-21 24-32 10-14h2l2-5 9-11 20-28 10-15 6-12 2-11z" fill="#D9D4CE"/>
<path transform="translate(663,976)" d="m0 0h33v8l-4 3-18 1-9 29-10 34-7 23-12 41-9 31-6 19-6 21-8 25-12 35-10 24-9 17-4 6-7 5h-14l-4-3v-5l-6-2v-1l14-2 6-4 8-14 12-28 13-37 12-40 14-47 11-37 13-44 12-40 6-17z" fill="#D9D4CE"/>
<path transform="translate(497,1037)" d="m0 0h4l2 11v5l-2-3-1-4-1 7-9 7-3 4-3 9-11 55-5 24-12 66-3 18-12 70-9 47-3 16-4 12-6 11-6 5h-9l-4-4 1-3-6-3v-1l9-1 5-5 5-12 5-20 27-156 14-75 9-43 5-21 5-5z" fill="#D9D4CE"/>
<path transform="translate(408,882)" d="m0 0 2 3 1 2 9 2 1 6v54l-1 51-3 76v17l-2 83-2 72v25l5-26h1l-1 12-10 60-1 2h-2l-2-6-1-8v-90l2-115 2-74 2-64 1-25v-47z" fill="#D9D4CE"/>
<path transform="translate(1270,985)" d="m0 0h5l4 5 4 12 2 17-1 24-4 37-6 36-8 36-9 30-9 24-3 3 1-50 2-37 5-59 5-43 4-20 4-10z" fill="#D9D4CE"/>
<path transform="translate(929,972)" d="m0 0h3v38l-3 35-4 30-5 25-6 16-4 6-3 3-5 1-6-4-6-7-6-12-2-13v-10l3-20 6-21 9-21 13-24 14-20z" fill="#FBFBFA"/>
<path transform="translate(645,977)" d="m0 0h2l-3 10-2 7-2-2-12 4-26 9-20 8-20 9-15 7-14 6 3 21 3 17 5 35 4 37 4 40 3 24 4 33v10h2l-2 4-3 1-4-4-4-16-6-46-7-69-6-50-6-38-2-9 9-6 31-15 36-15 19-6 23-5z" fill="#D9D4CE"/>
<path transform="translate(1291,987)" d="m0 0 2 1v2h3l6 10 5 18 1 11v30l-4 35-6 37-7 31-9 29-8 21-12 30-2 10v11l4 20-3-3-2-5-3-3-1 5-2-4-4-18-1-14 3-14 10-25 8-21 8-26 8-34 7-41 3-25 1-19v-15l-2-20-3-11z" fill="#D9D4CE"/>
<path transform="translate(998,948)" d="m0 0 7 6 5 8 4 11 1 7v30l-3 35-5 43-8 57-5 32-5 31-1 3-1 17-9 15-4 8h-2v-17l3-29 11-69 7-47 5-40 3-28 2-31v-16l-3-19z" fill="#D9D4CE"/>
<path transform="translate(804,1286)" d="m0 0 3 3 3 6-1 7-13 24-15 32-13 31-14 33-19 45-7 16-13 29-8 18-10 18-8 10-8 5h-8l-6-2-1-5 10-2 3-1 1-6 8-7 9-16 13-28 7-15 5-13 7-15 5-13 10-23 8-20 5-11 13-32 16-32 8-15 6-12 3-4z" fill="#D9D4CE"/>
<path transform="translate(1064,605)" d="m0 0 10 10v2l4 2 6 11 2 13v27l-2 7-1 12-1 7-1 5-3 16-3 12-3 14-7 30-9 35-3 9-1 6 2 2-9 7-12 15-4 4 3-11 21-83 10-45 7-39 2-15 1-14v-13l-3-14-5-9z" fill="#D9D4CE"/>
<path transform="translate(1054,617)" d="m0 0 4 1 2 3 1 5v21l-4 30-9 53-12 56-5 18-2 2v-11l2-28 3-44 5-50 4-28 4-16 5-10z" fill="#D9D4CE"/>
<path transform="translate(803,552)" d="m0 0h2v3l3 1-2 11-9 17-7 10-10 14-14 19-8 11h-2l-2 5-9 11-10 14-14 18-14 19-9 12-11 15-14 19-10 14-13 18-10 14-13 18-13 19-13 18-9 13-14 20-20 28-14 20-8 11-12 17-2 3h-2l-2 5-6 9-5 5h-3l2-5 14-19 9-13 36-51 10-14 12-17 14-20 24-34 10-14 8-11 20-28 11-15 28-38 21-28 13-17 9-12 16-21 8-11 13-18 12-18 6-12 2-6z" fill="#F7F6F5"/>
<path transform="translate(807,570)" d="m0 0 3 2-1 5-6 11-8 12-13 18-9 12-10 13-7 10h-2l-2 5-9 11-3 5h-2l-2 5-8 10-9 12-14 19-9 13h-2l-2 5-12 16-13 18-12 17-10 14-1 2h-2l-2 5-11 15-11 16-10 14-13 19-14 19-11 16-11 15-11 16-12 16-5 4-1-3 9-13 12-17 13-18 36-51 13-19 13-18 9-13 13-18 12-17 11-15 13-18 9-12 14-19 21-28 16-21 21-28 14-19 14-20 10-16z" fill="#FDFDFD"/>
<path transform="translate(1277,999)" d="m0 0 4 1 1 8h2l1 17-2 29-5 40-7 37-7 28-3 10h-2l-1 2 1-46 1-12 1-7 3-31 4-32 7-39z" fill="#FAF9F9"/>
<path transform="translate(704,851)" d="m0 0h3v24l-6 62-3 24-2 1-29-1 3-11 14-44 15-43z" fill="#D9D4CF"/>
<path transform="translate(718,544)" d="m0 0h43l12 3 4 5-1 3h-27l-32 2-59 5-33 2h-19l-5-2v-7l-2-2 82-6z" fill="#D9D4CE"/>
<path transform="translate(929,972)" d="m0 0h3v26l-2-3-15 28-8 17-7 20-4 18-1 12v16l-2 1-4-6v-2h-2l-1 6-2-2-2-13v-10l3-20 6-21 9-21 13-24 14-20z" fill="#DAD5CF"/>
<path transform="translate(1576,1492)" d="m0 0h10l1 4v55l-2 1h-6l-2-1-1-3-5 2-3 2h-10l-5-3-4-5-2-5-1-11 2-9 5-8 7-3h7l9 5-1-5v-15z" fill="#4C250C"/>
<path transform="translate(1183,852)" d="m0 0 11 1 9 4-1 5-5 12-10 17-12 14-9 6h-7l-5-5-1-3v-9l3-13 6-12 8-10 9-6z" fill="#D9D4CE"/>
<path transform="translate(1130,1228)" d="m0 0 11 1 8 4 1 3-5 12-9 16-11 14-8 7-4 2h-7l-5-5-1-4v-8l3-13 6-12 7-9 8-6z" fill="#D9D4CE"/>
<path transform="translate(771,853)" d="m0 0h14l10 4-1 5-5 12-8 14-8 10-7 8-8 5h-7l-5-5-1-3v-11l4-13 7-13 7-8z" fill="#D9D4CF"/>
<path transform="translate(858,1228)" d="m0 0 12 2 5 2 1 4-7 16-8 13-6 8-9 10-7 4h-7l-5-5v-16l4-13 4-8 8-10 7-5z" fill="#D9D4CE"/>
<path transform="translate(985,961)" d="m0 0 5 1 1 2 1 9v20l-2 33-6 60-9 77-2 4v-34l4-104 3-46 2-15z" fill="#D9D4CE"/>
<path transform="translate(794,889)" d="m0 0h2l4 15 1 4-5 10-10 11-9 6-9 3h-7l-11-3-9-4-4-2-2 29-1 7 2 1-11-1-4-2 2-22 2-24 2-2 5 5 5 3 10 2h9l10-3 9-6 7-7 9-14z" fill="#D9D4CE"/>
<path transform="translate(1011,1221)" d="m0 0 4 1 3 10v4l-3 2-17 40-7 20-6 16-4 6-2 2h-10l-4-3-1-4 1-2-8-2 4-1 8-1 5-8 11-31 6-16 9-19 8-11z" fill="#D9D4CE"/>
<path transform="translate(1312,1400)" d="m0 0h7l8 3 7 8 2 9-1 12-6 8-7 4h-14l-8-5-5-9v-15l4-8 6-5z" fill="#4C250C"/>
<path transform="translate(766,1495)" d="m0 0 10 1 1 35 3 9 10 2 6-3 2-3 1-39 1-1h10l1 1v36l-2 8-4 6-10 5h-15l-10-5-4-6-2-11 1-34z" fill="#4C250C"/>
<path transform="translate(1346,1492)" d="m0 0h10l2 1v18l12-3 8 1 5 4 2 4 1 7v27h-12l-1-28-1-4h-8l-4 2-1 2-1 28-12 1z" fill="#4C250C"/>
<path transform="translate(1171,1508)" d="m0 0h7l8 3 4 7 1 6v27l-2 1h-6l-2-5-9 5h-11l-5-3-3-4v-12l5-5 12-3h9l-2-6-2-2-9 1-6 1-3-4 1-4 6-2z" fill="#4C250C"/>
<path transform="translate(1119,1400)" d="m0 0 10 2 5 5 2 13v16l-1 7-1 1h-6l-3-5-6 4-3 1h-11l-6-5-1-2v-12l5-5 6-2 7-1h8l-2-7-7-1-10 2-3-5 1-3 6-2z" fill="#4C250C"/>
<path transform="translate(1070,1508)" d="m0 0h8l7 3 5 5 3 8v8l-1 1-26 1 3 7 4 2h10l8-2 1 3-3 5-7 3h-14l-8-4-5-7-2-11 2-10 4-6 5-4z" fill="#4C250C"/>
<path transform="translate(1465,1508)" d="m0 0h7l7 3 5 5 3 8v9l-27 1 1 7 6 2h10l8-2-1 7-4 3-3 1h-16l-7-4-5-7-1-3v-15l4-8 6-5z" fill="#4C250C"/>
<path transform="translate(802,1282)" d="m0 0 2 1v8l-8 13-16 32-8 17-5 11-12 29-16 38-8 18-5 13-5 11-7 17-7 14-6 14-10 19-5 7-6 2 2-4 10-17 11-23 16-36 11-26 14-33 18-43 13-30 9-20 12-22 5-9z" fill="#F5F4F3"/>
<path transform="translate(1008,890)" d="m0 0h1v41h-1l-1-18-8 7-5 5h-2v2l-5 2-1 3-4 4 6 1v1l-9 1-6 4-7 9-5 13-3 13h-1v-15l3-20 8-16 11-12 7-7 11-9z" fill="#D9D4CE"/>
<path transform="translate(900,1508)" d="m0 0 8 1 6 5 1 3 1 34-9 1-3-1-1-31-9-1-4 2-1 2-1 28-2 1h-9l-1-1v-42h8l1 3 9-3z" fill="#4C250C"/>
<path transform="translate(1228,1259)" d="m0 0h2l2 9 3 11-1 3v-2h-2l-1 4-4 6-6 5h-2v2h-3v2h-4l-1 2-6 2-8 2-16-1-10-5-1-4-5-2-3-3 9 2h18l10-3 11-7 8-8 9-13z" fill="#D9D4CE"/>
<path transform="translate(930,1388)" d="m0 0h32v9l-20 1v14h18l1 3-1 7h-18v21h-12z" fill="#4C250C"/>
<path transform="translate(1093,832)" d="m0 0 6 4 4 6v10l-9 14-11 11-14 8-8 3-4-4-1 2-6-7v-3l19-10 10-8 9-12 4-10z" fill="#D9D4CE"/>
<path transform="translate(1149,1265)" d="m0 0h2l4 15 6 9-5-2-10 13-5 5h-2v2l-11 5-12 2-12-3-8-5 1-2-5-3v-1l15 1 12-2 10-6 7-7 7-10z" fill="#D9D4CE"/>
<path transform="translate(1202,889)" d="m0 0h2l4 15 2 5h-2l-2 6-8 10-8 7-9 4-4 1h-13l-10-4-5-5-6-4 2-1 15 2 12-2 10-6 7-7 7-10z" fill="#D9D4CE"/>
<path transform="translate(876,1265)" d="m0 0h2l2 13 3 7h-3v5l-11 13-8 6-11 4h-14l-9-4-5-3 3-4h-6l-3-3 13 2h8l10-3 8-5 5-5 8-10z" fill="#D9D4CE"/>
<path transform="translate(950,1081)" d="m0 0h1v170h-1l-2-121-4 5-9 9-11 4h-15l-12-4-3-3h12l11-1 2-2 7-2 5-6 1-3h2l-1-4 6-9 6-13z" fill="#D9D4CE"/>
<path transform="translate(1195,1401)" d="m0 0h11l5 12 5 15 1 1 6-20 4-8h11l-3 11-10 26-2 5-2 1h-9l-3-2-10-27-4-11z" fill="#4C250C"/>
<path transform="translate(1129,896)" d="m0 0h1l2 13 2 6-4 2-7 7-12 6-10 3h-12l-11-3-9-6-6-5 2-1 14 3h9l13-4 10-6 14-11z" fill="#D9D4CE"/>
<path transform="translate(1264,1508)" d="m0 0 13 1 6 3-1 5-2 2-6-1h-10l1 4 16 8 3 6-1 9-5 5-5 2h-16l-5-2v-9l9 2h10l-1-5-14-8-4-5v-9l4-5z" fill="#4C250C"/>
<path transform="translate(950,1265)" d="m0 0 2 4-1 34h-1l-1-7h-2l-16 7-10 2h-11l-9-3-4-3v-3l-5-3v-1h23l10-3 11-7 7-7z" fill="#D9D4CE"/>
<path transform="translate(1031,884)" d="m0 0 4 2 6 10v4l1 4v25l-2 12-4 7-2 1h-8l-4-4-1-6-6-1v-1l12-2 2-16z" fill="#D9D4CE"/>
<path transform="translate(1296,882)" d="m0 0h2l-1 6-8 14-11 13-7 6-9 5-10 3h-14l-9-3-6-4v-3l-5-2-3-3 9 2h19l9-2-4 3 10-1 12-6 8-6 5-5 8-10 4-6z" fill="#D9D4CE"/>
<path transform="translate(786,862)" d="m0 0h6v6l-8 15-9 13-9 10-8 5h-7l-2-1v-3l6-2 4-11 6-12 7-9 9-8z" fill="#FAFAF9"/>
<path transform="translate(1335,1261)" d="m0 0h2l-1 9-6 15-8 15-9 11-9 8-9 4-9 1h-7l-11-4-3-2-1-3-8-4 2-1 9 2h12l7-1-4 2v2l2 1h8l4-1-1-3 5-2 10-9 7-7 4-6 5-7 4-10z" fill="#D9D4CE"/>
<path transform="translate(869,1238)" d="m0 0 4 1-1 7-8 15-8 11-10 11-7 4h-7l-2-1 1-3 4 1v-2h2l3-12 4-8 1-3h2l2-5 5-7 11-7z" fill="#FAF9F9"/>
<path transform="translate(629,1089)" d="m0 0 1 4-1 6-5 17-1 5-3 8-2 8-6 20-6 22-4 13-6 19-8 24-7 17-7 16-5 3 1-6 12-29 12-34 12-40 14-47 7-24z" fill="#F3F1EF"/>
<path transform="translate(1144,1238)" d="m0 0h3v6l-9 17-9 12-9 10-5 3h-8l4-4 2-8 4-10 3-7h2l2-4 4-6 7-4h2v-2z" fill="#FAFAFA"/>
<path transform="translate(1196,862)" d="m0 0 4 1-1 7-10 18-7 9-9 10-5 3h-8l-2-2 6-2 5-17 9-14 8-7h2l1-3z" fill="#FAFAFA"/>
<path transform="translate(961,849)" d="m0 0 4 3 7 2 1 17-1 34 2 1-11 10h-2z" fill="#D9D4CE"/>
<path transform="translate(1025,1384)" d="m0 0h10l1 4v55l-2 1h-10v-59z" fill="#4C250C"/>
<path transform="translate(981,1492)" d="m0 0h10l1 3v56l-2 1h-9l-1-1v-50z" fill="#4C250C"/>
<path transform="translate(1398,1401)" d="m0 0h8l2 2v4l5-3 6-3h7l-1 9-12 4-2 3-1 26-12 1z" fill="#4C250C"/>
<path transform="translate(1229,840)" d="m0 0 2 2 2 6 6 3 2 3-1 2h2l-1 15-2 9-1 15-2 3h-2l5 5-5-1-6-7-2-8v-15l2-14z" fill="#D9D4CE"/>
<path transform="translate(1177,1219)" d="m0 0 2 4 7 3 2 4v13l-2 18-1 11-2 4 3 3-5-1-5-6-3-9v-14z" fill="#D9D4CE"/>
<path transform="translate(903,1220)" d="m0 0 2 4 8 3 1 2v16l-2 13-1 16-2 1-2-1 4 5-5-2-4-5-2-5-1-6v-10z" fill="#D9D4CE"/>
<path transform="translate(822,843)" d="m0 0 2 4 8 4 2 3-1 15-3 27h-2l-1 2-2 1-1-5h-2l-1 2-3-10v-12z" fill="#D9D4CE"/>
<path transform="translate(718,544)" d="m0 0h43l12 3 2 2v3h-6v-2h-12l-15-1h-29l-25 3-38 2-15 2-16-1 2-2 49-4h11v-2z" fill="#F6F5F4"/>
<path transform="translate(873,906)" d="m0 0 2 3-3 5-10 8-7 4-13 3h-13l-10-4-4-3 1-2-5-3 4-1h20l9-2-2 2h11l5 1v-2l6-3z" fill="#D9D4CE"/>
<path transform="translate(702,898)" d="m0 0h1v19l-4 39-1 5-2 1-14-1 1-7 6-16 8-25 4-10z" fill="#F9F9F8"/>
<path transform="translate(898,857)" d="m0 0 1 2 11 2 1 1-2 27-1 12-1 2-3 1-2 2-3-5-3-16v-9z" fill="#D9D4CE"/>
<path transform="translate(1066,835)" d="m0 0 5 1 1 4-6 10-7 7-16 8-5 2-4-1 4-8 8-10 5-5 6-5z" fill="#F6F5F4"/>
<path transform="translate(1075,1269)" d="m0 0h2l2 19h-3l-5 3-10 3h-10l-8-3v-5l-8-3-1-2 4 1 15-1 12-5z" fill="#D9D4CE"/>
<path transform="translate(802,1282)" d="m0 0 2 1v8l-8 13-16 32-8 17-5 11-6 14-1-2h-2l3-10 18-41 9-19 13-23z" fill="#F7F7F6"/>
<path transform="translate(730,815)" d="m0 0 3 2 4 1 3 4 2 9 2 23-8 7-5 8h-2l1-5z" fill="#D9D4CE"/>
<path transform="translate(742,1429)" d="m0 0h2v8l-2 4h-2l1 3-2 6-3-1v8l-3 3-1 6-3 4-1 5-6 12-3 8-2 1-1 6-2 3h-2l1 4-2 4h-3l1 4-2 5-2 1-3 8-7 12-4 1v-4h2l1-5 7-12 11-24 4-8 3-9 5-10 6-15 6-13 4-9z" fill="#FCFCFC"/>
<path transform="translate(1038,1216)" d="m0 0 3 3 5 3 4 8 2 16v18l-1 3h7v1h-8l-5-3-3-6-1-5-1-23z" fill="#DAD6D0"/>
<path transform="translate(994,1093)" d="m0 0h1v8h3l-1 11h-1v7l-1 5-2 17-1 5-1 9-2 9-6 5 1-20 7-45 2-6z" fill="#F7F7F6"/>
<path transform="translate(1006,891)" d="m0 0h2v12l-2 3h-2l-11 8-10 10-7 4h-6l1-5 15-15 11-9z" fill="#F9F8F8"/>
<path transform="translate(1314,1409)" d="m0 0 7 2 3 4v13l-3 5-5 3-6-2-3-4v-16l4-4z" fill="#F7F6F5"/>
<path transform="translate(1354,482)" d="m0 0h9l2 3 3 26 8 95v34l-2 14h-1l1-15v-30l-4-47-2-16-2-32-3-28-1-2h-6l-1 5-1 83-1 37h-1v-43l1-83z" fill="#D9D4CE"/>
<path transform="translate(1563,1518)" d="m0 0h7l5 4 1 2v11l-3 6-6 3-5-2-3-4v-15l2-4z" fill="#F8F7F7"/>
<path transform="translate(1228,1259)" d="m0 0h2l1 2v14l-7 6-2 5-6 3-4 3-14 2-3-2 4-1v-2l11-7 8-8 9-13z" fill="#F8F7F6"/>
<path transform="translate(1268,467)" d="m0 0h11l1 1 1 26 3 129 21 1v1h-22l-1-1-1-40-1-3v-40l-1-46-1-26h-7l-2 1-4 49-3 43h-1v-18l5-69 1-7z" fill="#D9D4CE"/>
<path transform="translate(936,908)" d="m0 0h1l-1 28h-1l-1-8-4 3-7 1h-11l-9-3-6-3v-1l18-1 13-5h2l1-2 3-1z" fill="#D9D4CE"/>
<path transform="translate(1094,835)" d="m0 0 2 4-5 10-4 4v3h-2l-1 4h-2v2h-2v2h-2l-1 3-7 5-14 7-1 2-4-1-1-4 19-10 10-8 9-12 3-6h2z" fill="#F6F5F3"/>
<path transform="translate(594,1211)" d="m0 0 1 4-7 20-7 17-7 16-5 3 1-6 12-29 7-19 3-3 2-1z" fill="#F6F5F3"/>
<path transform="translate(1271,1178)" d="m0 0h2l-2 5 2 1-7 21-7 15-1 3h-2l-1 5h-2l-1 16-2 2v-11l2-10 14-36 4-9z" fill="#F4F3F2"/>
<path transform="translate(452,1064)" d="m0 0h2l-1 8-3 14h-1l-1-5h-10l-4-4-1-4-8-3 3-1h13l9-3z" fill="#DED9D4"/>
<path transform="translate(949,1270)" d="m0 0h1v8l-2 5-3 2h-3v2l-6 4-1 1-11 1-1-2h2v-2l11-7 7-7z" fill="#F9F9F8"/>
<path transform="translate(1052,768)" d="m0 0 2 3v2l-2 2-1 13-1 1-1 7-3 8-2 9-2 1-2 3v-8l9-36h2z" fill="#F6F5F3"/>
<path transform="translate(794,889)" d="m0 0h2v11h-2l-2 4-10 12-8 4-2 4-8 2v-3l10-6 8-8 9-14z" fill="#F5F4F3"/>
<path transform="translate(1129,896)" d="m0 0h1l1 15-1 2-6-1-7 2-5 2-2-2 6-7 10-8z" fill="#F7F6F5"/>
<path transform="translate(733,983)" d="m0 0h10l20 4v2l9 1 10 2-2 2h-7l-25-5-16-4z" fill="#F1F0EE"/>
<path transform="translate(491 1e3)" d="m0 0 3 3 2 12-13 7h-2l3-9 6-12z" fill="#E4E0DC"/>
<path transform="translate(1170,1532)" d="m0 0h9v8l-6 4h-6l-3-2v-6l3-3z" fill="#F4F3F1"/>
<path transform="translate(757,1376)" d="m0 0h3l-1 7-5 13-6 13-2 5-4-1 2-6z" fill="#F4F3F2"/>
<path transform="translate(1121,1423)" d="m0 0 3 1v8l-5 4h-7l-2-2v-7l5-3z" fill="#F4F3F1"/>
<path transform="translate(935,906)" d="m0 0h1l-1 11-15 6-6 2v-2l-21-2-2-2 10 1h12l9-3 8-6z" fill="#F0EEEC"/>
<path transform="translate(1064,840)" d="m0 0h7l-2 6-9 10h-3l-1-1-1-2-3 1 2-4 7-8z" fill="#DAD5CF"/>
<path transform="translate(603,1176)" d="m0 0 3 1-3 12-6 18-1 4h-2l-1 6-3-1 3-11 8-26z" fill="#F5F3F2"/>
<path transform="translate(1466,1516)" d="m0 0h6l4 4 1 5-3 1h-13l-1-1v-5z" fill="#F2F1EF"/>
<path transform="translate(1072,1516)" d="m0 0 7 1 3 4v4l-4 1h-10l-2-1 1-5 3-3z" fill="#F1EFED"/>
<path transform="translate(1011,1221)" d="m0 0 4 1v8l-6 1-3 1-1 4-3 2v3l-2-1v-5l8-11z" fill="#F5F4F3"/>
<path transform="translate(629,1089)" d="m0 0 1 4-1 6-5 17-1 5-3-1 1-8 6-21z" fill="#F4F3F2"/>
<path transform="translate(925,980)" d="m0 0 1 2-1 2h-2v3h-2v2h-2v4h-2l-1 5-5 8h-2l-1 3-1-4 8-14 5-7z" fill="#F6F5F3"/>
<path transform="translate(906,1010)" d="m0 0 1 4-3 3-4 12-3 4-2 5v2h-2l1-9 9-19z" fill="#F3F1EF"/>
<path transform="translate(1072,1271)" d="m0 0h4v11l-2-1-12-1 1-3z" fill="#F8F7F6"/>
<path transform="translate(677,977)" d="m0 0h19l-2 6-13-2h-3z" fill="#FDFDFD"/>
<path transform="translate(1094,835)" d="m0 0 2 4-5 10-4 4v3h-3l-1 2h-3l2-4 6-8 3-6h2z" fill="#F5F4F2"/>
<path transform="translate(597,1197)" d="m0 0 3 2-4 12h-2l-1 6-3-1 3-11 2-7z" fill="#F0EEEC"/>
<path transform="translate(1202,889)" d="m0 0h2v10h-2l-2 4-4 1 1-6z" fill="#F3F1F0"/>
<path transform="translate(1052,768)" d="m0 0 2 3v2l-2 2-1 13h-5l2-11 1-4h2z" fill="#F5F3F2"/>
<path transform="translate(408,1297)" d="m0 0h1l-1 16-2 2-2-2 1-14z" fill="#FDFDFD"/>
<path transform="translate(930,984)" d="m0 0 1 4v5l-4-3-2 8-3 5-5 2 2-5 7-11z" fill="#FDFDFD"/>
<path transform="translate(858,1291)" d="m0 0 3 1-2 4-4 4-9 1 1-3 8-5z" fill="#F4F3F2"/>
<path transform="translate(491 1e3)" d="m0 0 3 1 2 12-6 3h-3v-2l5-2v-7h-3z" fill="#F1F0EE"/>
<path transform="translate(760,989)" d="m0 0h8l14 3-2 2h-7l-13-3z" fill="#F6F5F4"/>
<path transform="translate(407,1120)" d="m0 0 2 2 1 14v22h-1l-1-21-2-7z" fill="#FDFDFD"/>
<path transform="translate(775,853)" d="m0 0h10l10 4v3h-7l1-2-9-2-5-2z" fill="#F2F0EE"/>
<path transform="translate(606,1162)" d="m0 0 4 1-3 12-3 3h-2l2-9z" fill="#F1F0EE"/>
<path transform="translate(857,1230)" d="m0 0h13l5 2 1 4h-6l-3-3-10-2z" fill="#F4F2F1"/>
<path transform="translate(983,1155)" d="m0 0h1v12l2 4h-2l-1 5-1 3h-2l1-12z" fill="#D9D4CE"/>
<path transform="translate(643,1040)" d="m0 0h1l-1 8-2 5-2 8-2 5h-1l1-8 5-17z" fill="#F0EEEC"/>
<path transform="translate(651,1013)" d="m0 0 1 4-1 4-2 5-2 8-2 5h-1l1-8 5-17z" fill="#EFEDEB"/>
<path transform="translate(408,1175)" d="m0 0h1v16l-2 9h-2v-13l2 1z" fill="#FDFDFD"/>
<path transform="translate(635,1067)" d="m0 0h2l-2 11h-2l1 4-2 5h-2l1-9 3-10z" fill="#F3F2F0"/>
<path transform="translate(1115,1408)" d="m0 0 7 1 2 2v6l-3-1h2l-1-4h-12l-4 1-2-1 1-2z" fill="#D9D4CE"/>
<path transform="translate(977,1099)" d="m0 0 3 1-2 12-2 15h-1v-10z" fill="#FDFDFD"/>
<path transform="translate(812,998)" d="m0 0 21 2v1l-14 1-10-2z" fill="#FDFDFD"/>
<path transform="translate(489,1011)" d="m0 0h2l-1 6-3 1 1 3-5 3h-2l3-9 1 2 2-1z" fill="#BCB0A6"/>
<path transform="translate(925,980)" d="m0 0 1 2-1 2h-2v3h-2v2h-2v4l-6 3 2-5 5-7z" fill="#F1EFEE"/>
<path transform="translate(1149,1265)" d="m0 0h2v11l-5-1 1-6z" fill="#F4F3F1"/>
<path transform="translate(611,1151)" d="m0 0h2l-2 11-4 2 1-9 1-3z" fill="#F5F4F2"/>
<path transform="translate(875,1269)" d="m0 0h2l-1 7-5 3h-2l1-4 2-4z" fill="#F6F6F4"/>
<path transform="translate(624,1107)" d="m0 0 2 1-3 11v2l-3-1 1-8 1-4z" fill="#F6F6F4"/>
<path transform="translate(788,994)" d="m0 0 10 1 5 1-2 2-13-1-5-1v-1z" fill="#FAFAF9"/>
<path transform="translate(976,1238)" d="m0 0h1v8l-2 4h-2v-9z" fill="#F7F6F5"/>
<path transform="translate(671,1508)" d="m0 0 4 2-1 6-4 2v-8z" fill="#F8F7F6"/>
<path transform="translate(803,1302)" d="m0 0v3l-3 6-2 3h-2l-1 2-1-3h2l2-7h2z" fill="#FCFBFB"/>
<path transform="translate(898,1026)" d="m0 0 2 3-3 4-2 5v2h-2l1-9 2-4z" fill="#F4F2F1"/>
<path transform="translate(947,1100)" d="m0 0 1 4-1 3h-2v5h-2l-1 3-1-2 2-4 2-8z" fill="#F7F6F5"/>
<path transform="translate(950,1265)" d="m0 0 2 4-1 9h-1l-1-7-5 4 2-4z" fill="#DDD9D3"/>
<path transform="translate(773,918)" d="m0 0 2 1-3 4-4 2-4 1v-3z" fill="#F1EFED"/>
<path transform="translate(1252,1228)" d="m0 0 1 3-1 13-2 2v-11z" fill="#FDFDFD"/>
<path transform="translate(549,1010)" d="m0 0 4 1-11 6h-3v-2z" fill="#EEECE9"/>
<path transform="translate(733,983)" d="m0 0h10l-2 4-9-2z" fill="#F4F3F1"/>
<path transform="translate(1055,839)" d="m0 0 2 1-13 13v-3l5-6z" fill="#E7E4E1"/>
<path transform="translate(771,990)" d="m0 0 11 2-2 2h-7l-4-2h2z" fill="#FDFDFD"/>
<path transform="translate(1086,849)" d="m0 0 2 1-1 6h-3l-1 2h-3l2-4z" fill="#EBE8E5"/>
<path transform="translate(986,1169)" d="m0 0 1 4-1 5-5 2 3-9h2z" fill="#FDFDFD"/>
<path transform="translate(964,948)" d="m0 0h1v6l-4 4-1-3 1-5z" fill="#F7F6F6"/>
</svg>
